<?xml version="1.0" standalone="no"?>
<!DOCTYPE svg PUBLIC "-//W3C//DTD SVG 20010904//EN"
  "http://www.w3.org/TR/2001/REC-SVG-20010904/DTD/svg10.dtd">
<svg version="1.0" xmlns="http://www.w3.org/2000/svg"
     width="1182.000000pt" height="1280.000000pt" viewBox="0 0 1182.000000 1280.000000"
     preserveAspectRatio="xMidYMid meet">
  <g transform="translate(0.000000,1280.000000) scale(0.100000,-0.100000)"
     fill="#000000" stroke="none">
    <path d="M9615 12718 c-394 -298 -609 -832 -670 -1663 l-7 -90 -140 -150
c-360 -385 -611 -668 -1109 -1250 -755 -883 -1066 -1270 -1784 -2222 -301
-398 -343 -458 -328 -466 10 -6 20 -11 22 -13 3 -3 -803 -1109 -1229 -1684
-176 -238 -274 -380 -297 -430 -135 -290 -243 -686 -269 -985 -11 -129 -4
-128 -134 -22 -219 178 -392 341 -896 840 l-251 249 -274 -198 c-675 -486
-995 -747 -1289 -1050 -245 -253 -419 -491 -540 -739 -283 -578 -276 -1178 20
-1872 l52 -121 47 -8 c25 -4 39 -9 30 -11 -15 -4 -14 -10 8 -56 54 -115 70
-142 115 -191 121 -134 313 -174 796 -163 315 7 531 35 807 103 713 177 1386
561 2094 1193 164 146 534 523 602 614 79 104 99 148 99 217 0 63 -20 104 -72
143 -48 37 -145 80 -160 71 -15 -9 -15 -9 125 158 l107 126 -73 12 c-222 36
-414 100 -632 209 -142 72 -339 190 -331 199 2 2 16 -4 30 -13 23 -15 26 -16
20 -2 -7 18 -39 31 -54 22 -8 -5 -150 82 -150 92 0 2 8 3 17 1 14 -2 23 19 50
117 102 371 178 554 302 725 34 47 230 270 238 270 2 0 -29 -39 -70 -87 -85
-101 -130 -177 -186 -319 -70 -176 -122 -440 -105 -530 16 -84 49 -62 194 132
55 74 110 146 123 161 55 64 794 902 1172 1329 88 99 243 275 345 390 102 115
246 276 320 359 463 515 1634 1889 2100 2465 74 91 170 210 215 265 196 240
537 681 898 1159 116 154 238 307 271 341 82 84 165 135 288 179 227 82 298
111 421 172 355 176 667 468 806 754 45 92 46 97 46 190 0 113 -10 138 -93
223 -54 55 -82 70 -82 45 0 -6 -2 -9 -5 -6 -3 2 6 32 20 66 51 126 14 272 -69
272 -19 0 -52 14 -83 35 -186 125 -452 264 -650 339 -158 59 -323 101 -498
126 -77 11 -154 22 -171 25 -26 4 -42 -3 -99 -47z m95 -504 c0 -4 -3 -5 -6 -1
-7 7 -105 -101 -147 -163 -17 -25 -35 -48 -39 -51 -5 -3 -22 -39 -38 -80 -37
-92 -39 -76 -4 23 36 100 88 201 141 276 l44 62 25 -29 c13 -16 24 -32 24 -37z
m468 -559 c146 -71 177 -83 195 -74 30 14 -43 -51 -128 -115 -141 -106 -428
-262 -621 -336 -88 -34 -94 -35 -72 -17 9 7 24 59 38 132 34 179 94 349 143
405 66 76 125 103 212 95 49 -4 91 -20 233 -90z m345 -491 c-121 -118 -274
-220 -494 -330 -173 -87 -282 -104 -364 -55 -25 14 -36 16 -45 8 -9 -8 -8 -5
1 10 9 15 39 29 108 48 315 89 575 201 776 334 50 33 92 60 93 60 2 1 -31 -33
-75 -75z m-5943 -6407 c0 -2 -15 -16 -32 -33 l-33 -29 29 33 c28 30 36 37 36
29z"/>
  </g>
</svg>
